<svg xmlns="http://www.w3.org/2000/svg" width="900" height="560" viewBox="0 0 900 560">
<rect width="100%" height="100%" fill="white"/>
<style>text{font-family:Arial,sans-serif;fill:#222}.title{font-size:24px;font-weight:bold}.axis{font-size:15px}.value{font-size:15px;font-weight:bold}.note{font-size:14px;fill:#555}</style>
<text x="450.0" y="38" text-anchor="middle" class="title">Canonical CTCF motif enrichment (MA0139.1)</text>
<line x1="105" y1="78" x2="105" y2="442" stroke="#333"/>
<line x1="105" y1="442" x2="865" y2="442" stroke="#333"/>
<text x="24" y="260.0" text-anchor="middle" class="axis" transform="rotate(-90 24 260.0)">Median maximum PWM log-odds</text>
<line x1="105" y1="442.0" x2="865" y2="442.0" stroke="#ddd"/>
<text x="93" y="447.0" text-anchor="end" class="axis">0</text>
<line x1="105" y1="369.2" x2="865" y2="369.2" stroke="#ddd"/>
<text x="93" y="374.2" text-anchor="end" class="axis">3.3</text>
<line x1="105" y1="296.4" x2="865" y2="296.4" stroke="#ddd"/>
<text x="93" y="301.4" text-anchor="end" class="axis">6.7</text>
<line x1="105" y1="223.6" x2="865" y2="223.6" stroke="#ddd"/>
<text x="93" y="228.6" text-anchor="end" class="axis">10</text>
<line x1="105" y1="150.8" x2="865" y2="150.8" stroke="#ddd"/>
<text x="93" y="155.8" text-anchor="end" class="axis">13</text>
<line x1="105" y1="78.0" x2="865" y2="78.0" stroke="#ddd"/>
<text x="93" y="83.0" text-anchor="end" class="axis">17</text>
<rect x="177.2" y="125.5" width="235.6" height="316.5" fill="#4c78a8"/>
<text x="295.0" y="117.5" text-anchor="middle" class="value">14.49</text>
<text x="295.0" y="469" text-anchor="middle" class="axis">IDR peaks</text>
<rect x="557.2" y="404.3" width="235.6" height="37.7" fill="#f58518"/>
<text x="675.0" y="396.3" text-anchor="middle" class="value">1.72</text>
<text x="675.0" y="469" text-anchor="middle" class="axis">Matched controls</text>
<text x="450.0" y="536" text-anchor="middle" class="note">Central ±25 bp: 74.3%; BH-adjusted p &lt; 1e-300</text>
</svg>
