<svg xmlns="http://www.w3.org/2000/svg" width="960" height="570" viewBox="0 0 960 570">
<rect width="100%" height="100%" fill="white"/>
<style>text{font-family:Arial,sans-serif;fill:#222}.title{font-size:24px;font-weight:bold}.axis{font-size:14px}.value{font-size:14px;font-weight:bold}.note{font-size:13px;fill:#555}</style>
<text x="480.0" y="38" text-anchor="middle" class="title">Replicate CPM coverage concordance</text>
<line x1="110" y1="78" x2="110" y2="445" stroke="#333"/>
<line x1="110" y1="445" x2="925" y2="445" stroke="#333"/>
<text x="24" y="261.5" text-anchor="middle" class="axis" transform="rotate(-90 24 261.5)">Correlation</text>
<line x1="110" y1="445.0" x2="925" y2="445.0" stroke="#ddd"/>
<text x="98" y="450.0" text-anchor="end" class="axis">0</text>
<line x1="110" y1="371.6" x2="925" y2="371.6" stroke="#ddd"/>
<text x="98" y="376.6" text-anchor="end" class="axis">0.11</text>
<line x1="110" y1="298.2" x2="925" y2="298.2" stroke="#ddd"/>
<text x="98" y="303.2" text-anchor="end" class="axis">0.22</text>
<line x1="110" y1="224.8" x2="925" y2="224.8" stroke="#ddd"/>
<text x="98" y="229.8" text-anchor="end" class="axis">0.33</text>
<line x1="110" y1="151.4" x2="925" y2="151.4" stroke="#ddd"/>
<text x="98" y="156.4" text-anchor="end" class="axis">0.44</text>
<line x1="110" y1="78.0" x2="925" y2="78.0" stroke="#ddd"/>
<text x="98" y="83.0" text-anchor="end" class="axis">0.55</text>
<rect x="148.7" y="140.4" width="126.3" height="304.6" fill="#4c78a8"/>
<text x="211.9" y="132.4" text-anchor="middle" class="value">0.457</text>
<text x="211.9" y="473" text-anchor="middle" class="axis">Pearson</text>
<rect x="352.5" y="419.2" width="126.3" height="25.8" fill="#f58518"/>
<text x="415.6" y="411.2" text-anchor="middle" class="value">0.039</text>
<text x="415.6" y="473" text-anchor="middle" class="axis">Rotated Pearson</text>
<rect x="556.2" y="179.4" width="126.3" height="265.6" fill="#54a24b"/>
<text x="619.4" y="171.4" text-anchor="middle" class="value">0.398</text>
<text x="619.4" y="473" text-anchor="middle" class="axis">Spearman</text>
<rect x="760.0" y="405.3" width="126.3" height="39.7" fill="#b279a2"/>
<text x="823.1" y="397.3" text-anchor="middle" class="value">0.059</text>
<text x="823.1" y="473" text-anchor="middle" class="axis">Rotated Spearman</text>
<text x="480.0" y="546" text-anchor="middle" class="note">6,176,550 non-overlapping 500 bp bins; rotation seed frozen before evaluation</text>
</svg>
